<svg width="45" height="45" viewBox="0 0 45 45" fill="none" xmlns="http://www.w3.org/2000/svg">
<path d="M22.5 42C33.2695 42 42 33.2696 42 22.5C42 11.7304 33.2695 3 22.5 3C11.7304 3 2.99998 11.7304 2.99998 22.5C2.99998 33.2696 11.7304 42 22.5 42Z" fill="#563D7C"/>
<path d="M28.8999 12.9H16.1001C14.3343 12.9048 12.9048 14.3343 12.9 16.1001V28.8999C12.9 30.66 14.34 32.1 16.1001 32.1H28.8999C30.66 32.1 32.1 30.66 32.1 28.8999V16.1001C32.1 14.34 30.66 12.9 28.8999 12.9ZM27.1503 26.3841C26.9904 26.7696 26.7369 27.1095 26.412 27.3711C26.076 27.6432 25.6503 27.8673 25.1265 28.0272C24.6033 28.1895 23.9808 28.2711 23.2599 28.2711H18.1143V17.0712H23.556C24.5625 17.0712 25.3689 17.2977 25.9719 17.7591C26.58 18.2232 26.8824 18.9144 26.8824 19.8471C26.8824 20.4111 26.7447 20.8953 26.4681 21.2952C26.1927 21.6927 25.7961 22.0041 25.284 22.2201V22.2567C25.9671 22.4007 26.496 22.7247 26.844 23.2287C27.192 23.7327 27.3705 24.3696 27.3705 25.1385C27.3705 25.5687 27.2871 25.9785 27.1305 26.3607L27.1503 26.3823V26.3841ZM24.9297 23.6241C24.6015 23.3241 24.1407 23.1777 23.5455 23.1777H20.088V26.6721H23.5551C24.1473 26.6721 24.6111 26.5185 24.9393 26.208C25.2672 25.8999 25.4352 25.4607 25.4352 24.8961C25.4295 24.3441 25.2672 23.9169 24.9393 23.6241H24.9255H24.9297ZM24.4497 21.3657C24.7665 21.0969 24.9216 20.712 24.9216 20.2104C24.9216 19.6473 24.7815 19.2471 24.4977 19.0185C24.216 18.7905 23.8095 18.672 23.2752 18.672H20.0751V21.7623H23.2752C23.7417 21.7623 24.1392 21.6264 24.4464 21.3657H24.4497Z" fill="white"/>
</svg>
