<svg width="29" height="28" viewBox="0 0 29 28" fill="none" xmlns="http://www.w3.org/2000/svg">
<path d="M28.5 9.4375L28.9375 6.9375C29.0625 6.4375 28.6875 6 28.1875 6H23.5625L24.4375 0.9375C24.5625 0.4375 24.1875 0 23.6875 0H21.1875C20.8125 0 20.5 0.3125 20.4375 0.625L19.5 6H13.3125L14.25 0.9375C14.3125 0.4375 13.9375 0 13.5 0H10.9375C10.5625 0 10.25 0.3125 10.1875 0.625L9.25 6H4.3125C3.9375 6 3.625 6.3125 3.5625 6.625L3.125 9.125C3.0625 9.625 3.375 10 3.875 10H8.5625L7.125 18H2.1875C1.8125 18 1.5 18.3125 1.4375 18.625L1 21.125C0.875 21.625 1.25 22 1.75 22H6.375L5.5 27.125C5.375 27.625 5.75 28 6.25 28H8.75C9.125 28 9.4375 27.75 9.5 27.4375L10.4375 22H16.625L15.6875 27.125C15.625 27.625 16 28 16.4375 28H19C19.375 28 19.6875 27.75 19.75 27.4375L20.6875 22H25.625C26 22 26.3125 21.75 26.375 21.4375L26.8125 18.9375C26.875 18.4375 26.5625 18 26.0625 18H21.375L22.8125 10H27.75C28.125 10 28.4375 9.75 28.5 9.4375ZM17.3125 18H11.1875L12.625 10H18.75L17.3125 18Z" fill="#CC0000"/>
</svg>
