<svg width="45" height="45" viewBox="0 0 45 45" fill="none" xmlns="http://www.w3.org/2000/svg">
<path d="M22.5 42C33.2696 42 42 33.2696 42 22.5C42 11.7304 33.2696 3 22.5 3C11.7304 3 3 11.7304 3 22.5C3 33.2696 11.7304 42 22.5 42Z" fill="#0088CC"/>
<path d="M10.4064 22.3944C10.4064 21.8312 10.512 21.2702 10.7232 20.7114C10.9344 20.1526 11.2424 19.6532 11.6472 19.2132C12.052 18.7732 12.5448 18.4168 13.1256 18.144C13.7064 17.8712 14.3664 17.7348 15.1056 17.7348C15.9856 17.7348 16.749 17.924 17.3958 18.3024C18.0426 18.6808 18.5244 19.1736 18.8412 19.7808L17.178 20.9424C17.0724 20.696 16.9382 20.4914 16.7754 20.3286C16.6126 20.1658 16.4344 20.0338 16.2408 19.9326C16.0472 19.8314 15.8492 19.761 15.6468 19.7214C15.4444 19.6818 15.2464 19.662 15.0528 19.662C14.6392 19.662 14.2784 19.7456 13.9704 19.9128C13.6624 20.08 13.4072 20.2956 13.2048 20.5596C13.0024 20.8236 12.8528 21.1228 12.756 21.4572C12.6592 21.7916 12.6108 22.1304 12.6108 22.4736C12.6108 22.8432 12.668 23.1996 12.7824 23.5428C12.8968 23.886 13.0618 24.1896 13.2774 24.4536C13.493 24.7176 13.7526 24.9266 14.0562 25.0806C14.3598 25.2346 14.7008 25.3116 15.0792 25.3116C15.2728 25.3116 15.473 25.2874 15.6798 25.239C15.8866 25.1906 16.0846 25.1158 16.2738 25.0146C16.463 24.9134 16.6368 24.7814 16.7952 24.6186C16.9536 24.4558 17.0812 24.2556 17.178 24.018L18.9468 25.0608C18.806 25.404 18.597 25.712 18.3198 25.9848C18.0426 26.2576 17.7236 26.4864 17.3628 26.6712C17.002 26.856 16.6192 26.9968 16.2144 27.0936C15.8096 27.1904 15.4136 27.2388 15.0264 27.2388C14.3488 27.2388 13.7262 27.1002 13.1586 26.823C12.591 26.5458 12.1026 26.1784 11.6934 25.7208C11.2842 25.2632 10.9674 24.744 10.743 24.1632C10.5186 23.5824 10.4064 22.9928 10.4064 22.3944ZM26.6028 18.738L25.6524 20.5332C25.626 20.498 25.5336 20.432 25.3752 20.3352C25.2168 20.2384 25.0188 20.1372 24.7812 20.0316C24.5436 19.926 24.284 19.8336 24.0024 19.7544C23.7208 19.6752 23.4392 19.6356 23.1576 19.6356C22.3832 19.6356 21.996 19.8952 21.996 20.4144C21.996 20.5728 22.0378 20.7048 22.1214 20.8104C22.205 20.916 22.3282 21.0106 22.491 21.0942C22.6538 21.1778 22.8584 21.2548 23.1048 21.3252C23.3512 21.3956 23.6372 21.4748 23.9628 21.5628C24.4116 21.686 24.8164 21.8202 25.1772 21.9654C25.538 22.1106 25.8438 22.291 26.0946 22.5066C26.3454 22.7222 26.539 22.984 26.6754 23.292C26.8118 23.6 26.88 23.9696 26.88 24.4008C26.88 24.9288 26.781 25.3754 26.583 25.7406C26.385 26.1058 26.1232 26.4006 25.7976 26.625C25.472 26.8494 25.098 27.0122 24.6756 27.1134C24.2532 27.2146 23.8176 27.2652 23.3688 27.2652C23.0256 27.2652 22.6736 27.2388 22.3128 27.186C21.952 27.1332 21.6 27.0562 21.2568 26.955C20.9136 26.8538 20.5814 26.7328 20.2602 26.592C19.939 26.4512 19.642 26.2884 19.3692 26.1036L20.3196 24.216C20.3548 24.26 20.4692 24.3436 20.6628 24.4668C20.8564 24.59 21.0962 24.7132 21.3822 24.8364C21.6682 24.9596 21.9872 25.0696 22.3392 25.1664C22.6912 25.2632 23.0476 25.3116 23.4084 25.3116C24.174 25.3116 24.5568 25.0784 24.5568 24.612C24.5568 24.436 24.4996 24.2908 24.3852 24.1764C24.2708 24.062 24.1124 23.9586 23.91 23.8662C23.7076 23.7738 23.4678 23.688 23.1906 23.6088C22.9134 23.5296 22.612 23.4416 22.2864 23.3448C21.8552 23.2128 21.4812 23.0698 21.1644 22.9158C20.8476 22.7618 20.5858 22.5836 20.379 22.3812C20.1722 22.1788 20.0182 21.9456 19.917 21.6816C19.8158 21.4176 19.7652 21.1096 19.7652 20.7576C19.7652 20.2648 19.8576 19.8292 20.0424 19.4508C20.2272 19.0724 20.478 18.7534 20.7948 18.4938C21.1116 18.2342 21.479 18.0384 21.897 17.9064C22.315 17.7744 22.7572 17.7084 23.2236 17.7084C23.5492 17.7084 23.8704 17.7392 24.1872 17.8008C24.504 17.8624 24.8076 17.9416 25.098 18.0384C25.3884 18.1352 25.659 18.2452 25.9098 18.3684C26.1606 18.4916 26.3916 18.6148 26.6028 18.738ZM34.7208 18.738L33.7704 20.5332C33.744 20.498 33.6516 20.432 33.4932 20.3352C33.3348 20.2384 33.1368 20.1372 32.8992 20.0316C32.6616 19.926 32.402 19.8336 32.1204 19.7544C31.8388 19.6752 31.5572 19.6356 31.2756 19.6356C30.5012 19.6356 30.114 19.8952 30.114 20.4144C30.114 20.5728 30.1558 20.7048 30.2394 20.8104C30.323 20.916 30.4462 21.0106 30.609 21.0942C30.7718 21.1778 30.9764 21.2548 31.2228 21.3252C31.4692 21.3956 31.7552 21.4748 32.0808 21.5628C32.5296 21.686 32.9344 21.8202 33.2952 21.9654C33.656 22.1106 33.9618 22.291 34.2126 22.5066C34.4634 22.7222 34.657 22.984 34.7934 23.292C34.9298 23.6 34.998 23.9696 34.998 24.4008C34.998 24.9288 34.899 25.3754 34.701 25.7406C34.503 26.1058 34.2412 26.4006 33.9156 26.625C33.59 26.8494 33.216 27.0122 32.7936 27.1134C32.3712 27.2146 31.9356 27.2652 31.4868 27.2652C31.1436 27.2652 30.7916 27.2388 30.4308 27.186C30.07 27.1332 29.718 27.0562 29.3748 26.955C29.0316 26.8538 28.6994 26.7328 28.3782 26.592C28.057 26.4512 27.76 26.2884 27.4872 26.1036L28.4376 24.216C28.4728 24.26 28.5872 24.3436 28.7808 24.4668C28.9744 24.59 29.2142 24.7132 29.5002 24.8364C29.7862 24.9596 30.1052 25.0696 30.4572 25.1664C30.8092 25.2632 31.1656 25.3116 31.5264 25.3116C32.292 25.3116 32.6748 25.0784 32.6748 24.612C32.6748 24.436 32.6176 24.2908 32.5032 24.1764C32.3888 24.062 32.2304 23.9586 32.028 23.8662C31.8256 23.7738 31.5858 23.688 31.3086 23.6088C31.0314 23.5296 30.73 23.4416 30.4044 23.3448C29.9732 23.2128 29.5992 23.0698 29.2824 22.9158C28.9656 22.7618 28.7038 22.5836 28.497 22.3812C28.2902 22.1788 28.1362 21.9456 28.035 21.6816C27.9338 21.4176 27.8832 21.1096 27.8832 20.7576C27.8832 20.2648 27.9756 19.8292 28.1604 19.4508C28.3452 19.0724 28.596 18.7534 28.9128 18.4938C29.2296 18.2342 29.597 18.0384 30.015 17.9064C30.433 17.7744 30.8752 17.7084 31.3416 17.7084C31.6672 17.7084 31.9884 17.7392 32.3052 17.8008C32.622 17.8624 32.9256 17.9416 33.216 18.0384C33.5064 18.1352 33.777 18.2452 34.0278 18.3684C34.2786 18.4916 34.5096 18.6148 34.7208 18.738Z" fill="white"/>
</svg>
