<svg width="45" height="45" viewBox="0 0 45 45" fill="none" xmlns="http://www.w3.org/2000/svg">
<path d="M22.5 42C33.2695 42 42 33.2696 42 22.5C42 11.7304 33.2695 3 22.5 3C11.7304 3 2.99998 11.7304 2.99998 22.5C2.99998 33.2696 11.7304 42 22.5 42Z" fill="#222222"/>
<path d="M18.4016 34.5C20.6096 34.5 22.4016 32.7081 22.4016 30.5001V26.5H18.4016C16.1936 26.5 14.4016 28.292 14.4016 30.5001C14.4016 32.7081 16.1936 34.5 18.4016 34.5Z" fill="#0ACF83"/>
<path d="M14.4016 22.5C14.4016 20.292 16.1936 18.5 18.4016 18.5H22.4016V26.5H18.4016C16.1936 26.5 14.4016 24.708 14.4016 22.5Z" fill="#A259FF"/>
<path d="M14.4026 14.5C14.4026 12.292 16.1946 10.5 18.4026 10.5H22.4026V18.5H18.4026C16.1946 18.5 14.4026 16.708 14.4026 14.5Z" fill="#F24E1E"/>
<path d="M22.4016 10.5H26.4016C28.6096 10.5 30.4017 12.292 30.4017 14.5C30.4017 16.708 28.6096 18.5 26.4016 18.5H22.4016V10.5Z" fill="#FF7262"/>
<path d="M30.4017 22.5C30.4017 24.708 28.6096 26.5 26.4016 26.5C24.1936 26.5 22.4016 24.708 22.4016 22.5C22.4016 20.292 24.1936 18.5 26.4016 18.5C28.6096 18.5 30.4017 20.292 30.4017 22.5Z" fill="#1ABCFE"/>
</svg>
