<svg width="42" height="41" viewBox="0 0 42 41" fill="none" xmlns="http://www.w3.org/2000/svg">
<path d="M14.1914 32.8984C14.1914 32.7344 14.0273 32.5703 13.7812 32.5703C13.5352 32.5703 13.3711 32.7344 13.3711 32.8984C13.3711 33.0625 13.5352 33.2266 13.7812 33.1445C14.0273 33.1445 14.1914 33.0625 14.1914 32.8984ZM11.6484 32.4883C11.6484 32.6523 11.8125 32.8984 12.0586 32.8984C12.2227 32.9805 12.4688 32.8984 12.5508 32.7344C12.5508 32.5703 12.4688 32.4062 12.2227 32.3242C11.9766 32.2422 11.7305 32.3242 11.6484 32.4883ZM15.3398 32.4062C15.0938 32.4062 14.9297 32.5703 14.9297 32.8164C14.9297 32.9805 15.1758 33.0625 15.4219 32.9805C15.668 32.8984 15.832 32.8164 15.75 32.6523C15.75 32.4883 15.5039 32.3242 15.3398 32.4062ZM20.6719 0.90625C9.35156 0.90625 0.65625 9.60156 0.65625 20.9219C0.65625 30.0273 6.31641 37.8203 14.5195 40.6094C15.5859 40.7734 15.9141 40.1172 15.9141 39.625C15.9141 39.0508 15.9141 36.2617 15.9141 34.5391C15.9141 34.5391 10.1719 35.7695 8.94141 32.0781C8.94141 32.0781 8.03906 29.6992 6.72656 29.125C6.72656 29.125 4.83984 27.8125 6.80859 27.8125C6.80859 27.8125 8.85938 27.9766 10.0078 29.9453C11.8125 33.1445 14.7656 32.2422 15.9961 31.668C16.1602 30.3555 16.6523 29.4531 17.3086 28.8789C12.7148 28.3867 8.03906 27.7305 8.03906 19.8555C8.03906 17.5586 8.69531 16.4922 10.0078 15.0156C9.76172 14.4414 9.10547 12.3086 10.2539 9.4375C11.8945 8.94531 15.9141 11.6523 15.9141 11.6523C17.5547 11.1602 19.2773 10.9961 21 10.9961C22.8047 10.9961 24.5273 11.1602 26.168 11.6523C26.168 11.6523 30.1055 8.86328 31.8281 9.4375C32.9766 12.3086 32.2383 14.4414 32.0742 15.0156C33.3867 16.4922 34.207 17.5586 34.207 19.8555C34.207 27.7305 29.3672 28.3867 24.7734 28.8789C25.5117 29.5352 26.168 30.7656 26.168 32.7344C26.168 35.4414 26.0859 38.8867 26.0859 39.543C26.0859 40.1172 26.4961 40.7734 27.5625 40.5273C35.7656 37.8203 41.3438 30.0273 41.3438 20.9219C41.3438 9.60156 32.0742 0.90625 20.6719 0.90625ZM8.61328 29.207C8.44922 29.2891 8.53125 29.5352 8.61328 29.6992C8.77734 29.7812 8.94141 29.8633 9.10547 29.7812C9.1875 29.6992 9.1875 29.4531 9.02344 29.2891C8.85938 29.207 8.69531 29.125 8.61328 29.207ZM7.71094 28.5508C7.62891 28.7148 7.71094 28.7969 7.875 28.8789C8.03906 28.9609 8.20312 28.9609 8.28516 28.7969C8.28516 28.7148 8.20312 28.6328 8.03906 28.5508C7.875 28.4688 7.79297 28.4688 7.71094 28.5508ZM10.3359 31.5039C10.2539 31.5859 10.2539 31.832 10.5 31.9961C10.6641 32.1602 10.9102 32.2422 10.9922 32.0781C11.0742 31.9961 11.0742 31.75 10.9102 31.5859C10.7461 31.4219 10.5 31.3398 10.3359 31.5039ZM9.43359 30.2734C9.26953 30.3555 9.26953 30.6016 9.43359 30.7656C9.59766 30.9297 9.76172 31.0117 9.92578 30.9297C10.0078 30.8477 10.0078 30.6016 9.92578 30.4375C9.76172 30.2734 9.59766 30.1914 9.43359 30.2734Z" fill="#333333"/>
</svg>
