<svg width="45" height="45" viewBox="0 0 45 45" fill="none" xmlns="http://www.w3.org/2000/svg">
<path d="M22.5 42C33.2696 42 42 33.2696 42 22.5C42 11.7304 33.2696 3 22.5 3C11.7304 3 3 11.7304 3 22.5C3 33.2696 11.7304 42 22.5 42Z" fill="#E34F26"/>
<path d="M13.5 12.2142H31.5L29.8629 30.6969L22.4802 32.7858L15.1398 30.696L13.5 12.2142ZM19.5267 20.5713L19.3278 18.2418L27.9498 18.2442L28.1469 15.9969L16.8531 15.9942L17.4513 22.86H25.2738L24.9942 25.7967L22.5 26.4858L19.9671 25.7913L19.806 23.9829H17.5698L17.8527 27.558L22.5 28.8009L27.1107 27.564L27.7482 20.5722H19.5267V20.5713Z" fill="white"/>
</svg>
