<svg width="45" height="45" viewBox="0 0 45 45" fill="none" xmlns="http://www.w3.org/2000/svg">
<path d="M22.5 42C33.2695 42 42 33.2696 42 22.5C42 11.7304 33.2695 3 22.5 3C11.7304 3 2.99998 11.7304 2.99998 22.5C2.99998 33.2696 11.7304 42 22.5 42Z" fill="#F0DB4F"/>
<path d="M10.4364 29.412L11.214 26.5176C11.358 26.6328 11.664 26.7768 12.132 26.9496C12.6 27.1224 13.1436 27.2088 13.7628 27.2088C14.2956 27.2088 14.7204 27.1188 15.0372 26.9388C15.354 26.7588 15.5988 26.4816 15.7716 26.1072C15.9444 25.7328 16.056 25.254 16.1064 24.6708C16.1568 24.0876 16.182 23.3928 16.182 22.5864V14.7888H19.7244V22.5864C19.7244 23.7528 19.6632 24.8148 19.5408 25.7724C19.4184 26.73 19.152 27.5472 18.7416 28.224C18.3312 28.9008 17.73 29.4264 16.938 29.8008C16.146 30.1752 15.0876 30.3624 13.7628 30.3624C12.4668 30.3624 11.358 30.0456 10.4364 29.412ZM33.246 16.344L31.6908 19.2816C31.6476 19.224 31.4964 19.116 31.2372 18.9576C30.978 18.7992 30.654 18.6336 30.2652 18.4608C29.8764 18.288 29.4516 18.1368 28.9908 18.0072C28.53 17.8776 28.0692 17.8128 27.6084 17.8128C26.3412 17.8128 25.7076 18.2376 25.7076 19.0872C25.7076 19.3464 25.776 19.5624 25.9128 19.7352C26.0496 19.908 26.2512 20.0628 26.5176 20.1996C26.784 20.3364 27.1188 20.4624 27.522 20.5776C27.9252 20.6928 28.3932 20.8224 28.926 20.9664C29.6604 21.168 30.3228 21.3876 30.9132 21.6252C31.5036 21.8628 32.004 22.158 32.4144 22.5108C32.8248 22.8636 33.1416 23.292 33.3648 23.796C33.588 24.3 33.6996 24.9048 33.6996 25.6104C33.6996 26.4744 33.5376 27.2052 33.2136 27.8028C32.8896 28.4004 32.4612 28.8828 31.9284 29.25C31.3956 29.6172 30.7836 29.8836 30.0924 30.0492C29.4012 30.2148 28.6884 30.2976 27.954 30.2976C27.3924 30.2976 26.8164 30.2544 26.226 30.168C25.6356 30.0816 25.0596 29.9556 24.498 29.79C23.9364 29.6244 23.3928 29.4264 22.8672 29.196C22.3416 28.9656 21.8556 28.6992 21.4092 28.3968L22.9644 25.308C23.022 25.38 23.2092 25.5168 23.526 25.7184C23.8428 25.92 24.2352 26.1216 24.7032 26.3232C25.1712 26.5248 25.6932 26.7048 26.2692 26.8632C26.8452 27.0216 27.4284 27.1008 28.0188 27.1008C29.2716 27.1008 29.898 26.7192 29.898 25.956C29.898 25.668 29.8044 25.4304 29.6172 25.2432C29.43 25.056 29.1708 24.8868 28.8396 24.7356C28.5084 24.5844 28.116 24.444 27.6624 24.3144C27.2088 24.1848 26.7156 24.0408 26.1828 23.8824C25.4772 23.6664 24.8652 23.4324 24.3468 23.1804C23.8284 22.9284 23.4 22.6368 23.0616 22.3056C22.7232 21.9744 22.4712 21.5928 22.3056 21.1608C22.14 20.7288 22.0572 20.2248 22.0572 19.6488C22.0572 18.8424 22.2084 18.1296 22.5108 17.5104C22.8132 16.8912 23.2236 16.3692 23.742 15.9444C24.2604 15.5196 24.8616 15.1992 25.5456 14.9832C26.2296 14.7672 26.9532 14.6592 27.7164 14.6592C28.2492 14.6592 28.7748 14.7096 29.2932 14.8104C29.8116 14.9112 30.3084 15.0408 30.7836 15.1992C31.2588 15.3576 31.7016 15.5376 32.112 15.7392C32.5224 15.9408 32.9004 16.1424 33.246 16.344Z" fill="black"/>
</svg>
