<svg width="45" height="45" viewBox="0 0 45 45" fill="none" xmlns="http://www.w3.org/2000/svg">
<path d="M22.6915 42.1915C33.461 42.1915 42.1915 33.4611 42.1915 22.6915C42.1915 11.922 33.461 3.19153 22.6915 3.19153C11.9219 3.19153 3.19149 11.922 3.19149 22.6915C3.19149 33.4611 11.9219 42.1915 22.6915 42.1915Z" fill="black"/>
<path d="M38.4082 21.7969L34.7168 17.2266C34.1894 16.6113 34.0137 16.6992 33.6621 16.7871L29.1797 17.4902C28.7402 17.5781 28.4766 17.7539 28.7402 18.1055L31.9922 22.6758L22.2363 25.0488L14.5019 12.1289C14.2383 11.6895 14.1504 11.5137 13.4473 11.5137L7.03124 12.041C6.67968 12.041 6.24023 12.2168 6.59179 13.1836L13.2715 27.5098C13.4473 27.8613 13.8867 28.5644 14.9414 28.3008L21.6211 26.543L25.2246 32.8711C25.7519 33.6621 26.1035 33.4863 26.9824 33.3105L37.3535 29.5312C37.793 29.3555 38.0566 29.2676 37.793 28.8281L33.8379 23.4668L38.1445 22.3242C38.584 22.2363 38.584 21.9727 38.3203 21.7969H38.4082ZM20.7422 25.4004L14.9414 26.8066L14.5898 26.7187C12.443 22.114 10.275 17.5144 8.08593 12.9199L13.3594 12.3926C15.8197 16.6995 18.2807 21.0062 20.7422 25.3125V25.4004ZM36.123 28.3008C36.2109 28.3887 36.2988 28.4766 36.0351 28.5644L26.6308 31.7285C26.4551 31.8164 26.2793 31.8164 26.1035 31.5527L22.9394 26.1914L32.4316 23.7305C32.6953 23.6426 32.6953 23.6426 32.8711 23.8184L36.123 28.3008ZM36.6504 21.5332L33.0469 22.4121L30.1465 18.5449C30.0586 18.457 29.9707 18.3691 30.2344 18.2812L33.75 17.666C33.9258 17.666 34.1016 17.5781 34.2773 17.8418L37.0019 21.2695C37.0898 21.4453 36.914 21.5332 36.6504 21.5332Z" fill="#FB503B"/>
</svg>
