<svg width="45" height="45" viewBox="0 0 45 45" fill="none" xmlns="http://www.w3.org/2000/svg">
<path d="M22.5 42C33.2696 42 42 33.2696 42 22.5C42 11.7304 33.2696 3 22.5 3C11.7304 3 3 11.7304 3 22.5C3 33.2696 11.7304 42 22.5 42Z" fill="#4479A1"/>
<path d="M26.9049 16.0014C26.79 16.0014 26.712 16.0155 26.631 16.0344V16.0476H26.6451C26.6991 16.1514 26.7909 16.2276 26.859 16.3206C26.913 16.4274 26.9589 16.5345 27.0129 16.6404L27.027 16.6254C27.1209 16.5594 27.1671 16.4535 27.1671 16.2924C27.1269 16.2456 27.1209 16.1985 27.087 16.1526C27.0471 16.0854 26.961 16.0524 26.907 15.9996L26.9049 16.0014ZM16.2699 29.1954H15.3429C15.3129 27.6336 15.2199 26.1654 15.0729 24.7854H15.0651L13.6551 29.1954H12.9501L11.55 24.7854H11.5401C11.4369 26.1084 11.3721 27.5784 11.3451 29.1954H10.5C10.5549 27.2295 10.692 25.3854 10.9101 23.6655H12.06L13.395 27.7296H13.4031L14.7501 23.6655H15.8451C16.0869 25.6806 16.2291 27.5256 16.2729 29.1954H16.2699ZM20.2869 25.1154C19.9089 27.1605 19.4109 28.6485 18.795 29.5755C18.3129 30.2916 17.7849 30.6486 17.2119 30.6486C17.0589 30.6486 16.872 30.6024 16.6461 30.5106V30.0165C16.7559 30.0336 16.8861 30.0426 17.0319 30.0426C17.3001 30.0426 17.5149 29.9676 17.679 29.8206C17.8761 29.6406 17.9739 29.4384 17.9739 29.2155C17.9739 29.0604 17.8971 28.7454 17.7441 28.2714L16.7301 25.1154H17.64L18.3669 27.4755C18.531 28.0116 18.6 28.3854 18.5721 28.5984C18.972 27.5346 19.2501 26.3715 19.407 25.1154H20.2869ZM32.6121 29.1954H29.982V23.6655H30.867V28.5156H32.6121V29.1954ZM29.292 29.3304L28.2759 28.8306C28.3659 28.7544 28.4529 28.6725 28.5309 28.5804C28.9641 28.0746 29.1789 27.3225 29.1789 26.3274C29.1789 24.4974 28.461 23.5815 27.024 23.5815C26.3199 23.5815 25.77 23.8134 25.374 24.2784C24.9441 24.7866 24.7281 25.5345 24.7281 26.5236C24.7281 27.4956 24.918 28.2096 25.302 28.6635C25.6521 29.0736 26.1789 29.2785 26.8851 29.2785C27.1491 29.2785 27.3909 29.2455 27.6099 29.1804L28.935 29.9526L29.295 29.3304H29.292ZM26.0001 28.0884C25.7751 27.7284 25.6629 27.1485 25.6629 26.3526C25.6629 24.9594 26.0871 24.2625 26.9331 24.2625C27.3759 24.2625 27.7029 24.4296 27.9099 24.7626C28.134 25.1244 28.2459 25.6986 28.2459 26.4855C28.2459 27.8895 27.822 28.5936 26.976 28.5936C26.5311 28.5936 26.2059 28.4265 25.998 28.0935L26.0001 28.0884ZM24.342 27.6636C24.342 28.1334 24.1701 28.5195 23.826 28.8195C23.4819 29.1195 23.0229 29.2695 22.4421 29.2695C21.8991 29.2695 21.378 29.0976 20.8689 28.7544L21.1059 28.2786C21.5439 28.4985 21.939 28.6065 22.296 28.6065C22.6281 28.6065 22.8891 28.5336 23.079 28.3866C23.2671 28.2396 23.379 28.0326 23.379 27.7716C23.379 27.4416 23.1489 27.1614 22.731 26.9265C22.3431 26.7135 21.5679 26.2695 21.5679 26.2695C21.1461 25.9626 20.9361 25.6335 20.9361 25.0926C20.9361 24.6426 21.093 24.2826 21.4059 24.0075C21.7209 23.7294 22.1259 23.5926 22.626 23.5926C23.1381 23.5926 23.6061 23.7285 24.0261 24.0024L23.8131 24.4785C23.4531 24.3264 23.0979 24.2484 22.749 24.2484C22.4661 24.2484 22.2471 24.3165 22.095 24.4545C21.942 24.5904 21.8469 24.7644 21.8469 24.9786C21.8469 25.3065 22.0809 25.5885 22.5129 25.8285C22.9059 26.0436 23.7 26.4984 23.7 26.4984C24.1329 26.8035 24.348 27.1284 24.348 27.6666L24.342 27.6636ZM33.7239 21.8115C33.189 21.7974 32.7741 21.8514 32.427 21.9996C32.3271 22.0395 32.1669 22.0395 32.1531 22.1664C32.208 22.2195 32.2161 22.3065 32.2629 22.3806C32.343 22.5144 32.481 22.6935 32.6091 22.7874C32.7489 22.8975 32.889 23.0034 33.036 23.0976C33.2961 23.2575 33.591 23.3526 33.846 23.5134C33.9909 23.6076 34.1391 23.7264 34.2861 23.8266C34.359 23.8764 34.4061 23.9664 34.5 23.9985V23.9784C34.4541 23.9184 34.44 23.8314 34.395 23.7645C34.3281 23.6976 34.2609 23.6376 34.1949 23.5716C34.0011 23.3115 33.7599 23.0844 33.5001 22.8966C33.2859 22.7505 32.8179 22.5465 32.73 22.3014L32.7171 22.2876C32.8629 22.2744 33.0369 22.2216 33.177 22.1814C33.4041 22.1214 33.612 22.1346 33.8469 22.0755C33.9531 22.0485 34.0599 22.0155 34.167 21.9816V21.9216C34.047 21.8016 33.957 21.6384 33.8331 21.5265C33.4929 21.2316 33.1161 20.9445 32.7291 20.7036C32.5191 20.5695 32.253 20.4834 32.0319 20.3694C31.9521 20.3295 31.818 20.3094 31.7721 20.2425C31.6521 20.0964 31.5819 19.9026 31.497 19.7286C31.305 19.3605 31.1169 18.9534 30.9501 18.5655C30.8301 18.3036 30.7569 18.0426 30.6099 17.8026C29.9199 16.6656 29.1729 15.9765 28.0239 15.3024C27.777 15.1626 27.4809 15.1026 27.168 15.0285C27.0009 15.0204 26.8341 15.0084 26.6679 15.0015C26.5581 14.9544 26.4519 14.8275 26.358 14.7666C25.9779 14.5266 24.9939 14.0064 24.714 14.6946C24.534 15.1284 24.981 15.5565 25.1361 15.7764C25.251 15.9294 25.3959 16.1046 25.476 16.2765C25.5231 16.3926 25.536 16.5114 25.5831 16.6326C25.689 16.9266 25.7901 17.2545 25.9299 17.5296C26.0031 17.6694 26.0829 17.8164 26.1771 17.9424C26.2311 18.0156 26.3229 18.0495 26.3439 18.1695C26.25 18.3054 26.244 18.5034 26.19 18.6696C25.95 19.4265 26.0439 20.3625 26.3841 20.9196C26.4909 21.0855 26.7459 21.4536 27.087 21.3126C27.387 21.1926 27.321 20.8125 27.4071 20.4774C27.4269 20.3976 27.414 20.3445 27.4551 20.2905V20.3055C27.549 20.4936 27.6429 20.6724 27.729 20.8605C27.9351 21.1884 28.2951 21.5286 28.596 21.7554C28.7559 21.8754 28.8831 22.0836 29.0829 22.1574V22.1376H29.0679C29.025 22.0794 28.968 22.0515 28.914 22.0044C28.794 21.8844 28.659 21.7374 28.5639 21.6045C28.284 21.2274 28.0371 20.8146 27.8169 20.3865C27.7071 20.1765 27.615 19.9506 27.5271 19.7436C27.4869 19.6635 27.4869 19.5435 27.42 19.5036C27.3201 19.6494 27.1731 19.7766 27.0999 19.9566C26.973 20.2446 26.9601 20.5986 26.9121 20.9664C26.8851 20.9736 26.898 20.9664 26.8851 20.9805C26.6709 20.9286 26.598 20.7066 26.5179 20.5206C26.3181 20.0454 26.2851 19.2825 26.4579 18.7356C26.505 18.5955 26.7051 18.1536 26.625 18.0195C26.583 17.8926 26.451 17.8194 26.3781 17.7165C26.2911 17.5926 26.1981 17.4315 26.1381 17.2896C25.9779 16.9155 25.8981 16.5015 25.7241 16.1274C25.644 15.9546 25.5039 15.7734 25.3899 15.6144C25.263 15.4344 25.1229 15.3075 25.0221 15.0945C24.9891 15.0216 24.942 14.9004 24.9951 14.8206C25.0089 14.7666 25.0371 14.7456 25.089 14.7306C25.1769 14.6586 25.4241 14.7525 25.5111 14.7924C25.758 14.8926 25.9659 14.9865 26.1729 15.1266C26.2671 15.1926 26.3679 15.3195 26.4879 15.3525H26.628C26.8419 15.3996 27.0831 15.3666 27.2829 15.4254C27.6381 15.5394 27.9579 15.7056 28.245 15.8856C29.121 16.4415 29.841 17.2305 30.33 18.1716C30.4101 18.3255 30.4449 18.4665 30.5181 18.6264C30.6579 18.9564 30.831 19.2894 30.9729 19.6086C31.113 19.9236 31.248 20.2446 31.449 20.5056C31.5489 20.6454 31.9509 20.7186 32.1309 20.7915C32.2641 20.8515 32.4711 20.9064 32.5911 20.9796C32.8209 21.1194 33.045 21.2796 33.261 21.4335C33.3711 21.5094 33.7041 21.6765 33.7239 21.8115Z" fill="white"/>
</svg>
