<svg width="45" height="45" viewBox="0 0 45 45" fill="none" xmlns="http://www.w3.org/2000/svg">
<path d="M22.5 42C33.2696 42 42 33.2696 42 22.5C42 11.7304 33.2696 3 22.5 3C11.7304 3 3 11.7304 3 22.5C3 33.2696 11.7304 42 22.5 42Z" fill="#777BB4"/>
<path d="M15.1584 27.2916C14.6304 27.2916 14.1728 27.1816 13.7856 26.9616C13.3984 26.7416 13.0992 26.4336 12.888 26.0376V29.9712H10.776V20.2296H12.6108V21.3516C12.866 20.9556 13.185 20.6476 13.5678 20.4276C13.9506 20.2076 14.406 20.0976 14.934 20.0976C15.4004 20.0976 15.8294 20.19 16.221 20.3748C16.6126 20.5596 16.9514 20.8126 17.2374 21.1338C17.5234 21.455 17.7478 21.8334 17.9106 22.269C18.0734 22.7046 18.1548 23.1732 18.1548 23.6748C18.1548 24.194 18.08 24.6736 17.9304 25.1136C17.7808 25.5536 17.574 25.9342 17.31 26.2554C17.046 26.5766 16.7292 26.8296 16.3596 27.0144C15.99 27.1992 15.5896 27.2916 15.1584 27.2916ZM14.4456 25.5096C14.6744 25.5096 14.8834 25.459 15.0726 25.3578C15.2618 25.2566 15.4268 25.1224 15.5676 24.9552C15.7084 24.788 15.8162 24.5922 15.891 24.3678C15.9658 24.1434 16.0032 23.908 16.0032 23.6616C16.0032 23.4064 15.9614 23.171 15.8778 22.9554C15.7942 22.7398 15.6798 22.5528 15.5346 22.3944C15.3894 22.236 15.2134 22.1128 15.0066 22.0248C14.7998 21.9368 14.5776 21.8928 14.34 21.8928C14.0496 21.8928 13.7702 21.9786 13.5018 22.1502C13.2334 22.3218 13.0288 22.5528 12.888 22.8432V24.2688C13.0288 24.6208 13.2422 24.9156 13.5282 25.1532C13.8142 25.3908 14.12 25.5096 14.4456 25.5096ZM25.9032 22.7244V27.1596H23.7912V23.2656C23.7912 22.8168 23.7032 22.4868 23.5272 22.2756C23.3512 22.0644 23.1092 21.9588 22.8012 21.9588C22.678 21.9588 22.5438 21.9874 22.3986 22.0446C22.2534 22.1018 22.1126 22.1854 21.9762 22.2954C21.8398 22.4054 21.7144 22.5352 21.6 22.6848C21.4856 22.8344 21.3976 23.0016 21.336 23.1864V27.1596H19.224V17.5236H21.336V21.3912C21.5912 20.9776 21.9278 20.6586 22.3458 20.4342C22.7638 20.2098 23.2236 20.0976 23.7252 20.0976C24.1916 20.0976 24.5678 20.179 24.8538 20.3418C25.1398 20.5046 25.3598 20.7114 25.5138 20.9622C25.6678 21.213 25.7712 21.4946 25.824 21.807C25.8768 22.1194 25.9032 22.4252 25.9032 22.7244ZM31.6848 27.2916C31.1568 27.2916 30.6992 27.1816 30.312 26.9616C29.9248 26.7416 29.6256 26.4336 29.4144 26.0376V29.9712H27.3024V20.2296H29.1372V21.3516C29.3924 20.9556 29.7114 20.6476 30.0942 20.4276C30.477 20.2076 30.9324 20.0976 31.4604 20.0976C31.9268 20.0976 32.3558 20.19 32.7474 20.3748C33.139 20.5596 33.4778 20.8126 33.7638 21.1338C34.0498 21.455 34.2742 21.8334 34.437 22.269C34.5998 22.7046 34.6812 23.1732 34.6812 23.6748C34.6812 24.194 34.6064 24.6736 34.4568 25.1136C34.3072 25.5536 34.1004 25.9342 33.8364 26.2554C33.5724 26.5766 33.2556 26.8296 32.886 27.0144C32.5164 27.1992 32.116 27.2916 31.6848 27.2916ZM30.972 25.5096C31.2008 25.5096 31.4098 25.459 31.599 25.3578C31.7882 25.2566 31.9532 25.1224 32.094 24.9552C32.2348 24.788 32.3426 24.5922 32.4174 24.3678C32.4922 24.1434 32.5296 23.908 32.5296 23.6616C32.5296 23.4064 32.4878 23.171 32.4042 22.9554C32.3206 22.7398 32.2062 22.5528 32.061 22.3944C31.9158 22.236 31.7398 22.1128 31.533 22.0248C31.3262 21.9368 31.104 21.8928 30.8664 21.8928C30.576 21.8928 30.2966 21.9786 30.0282 22.1502C29.7598 22.3218 29.5552 22.5528 29.4144 22.8432V24.2688C29.5552 24.6208 29.7686 24.9156 30.0546 25.1532C30.3406 25.3908 30.6464 25.5096 30.972 25.5096Z" fill="white"/>
</svg>
