<svg width="11" height="10" viewBox="0 0 11 10" fill="none" xmlns="http://www.w3.org/2000/svg">
<path d="M8.85156 1.48047C7.9707 0.578125 6.76758 0.0625 5.47852 0.0625C2.85742 0.0625 0.708984 2.21094 0.708984 4.83203C0.708984 5.69141 0.945312 6.50781 1.35352 7.2168L0.6875 9.6875L3.20117 9.04297C3.91016 9.4082 4.68359 9.62305 5.47852 9.62305C8.12109 9.62305 10.3125 7.47461 10.3125 4.85352C10.3125 3.56445 9.75391 2.38281 8.85156 1.48047ZM5.47852 8.80664C4.76953 8.80664 4.08203 8.61328 3.45898 8.24805L3.33008 8.16211L1.82617 8.57031L2.23438 7.10938L2.12695 6.95898C1.74023 6.31445 1.52539 5.58398 1.52539 4.83203C1.52539 2.66211 3.30859 0.878906 5.5 0.878906C6.55273 0.878906 7.54102 1.28711 8.29297 2.03906C9.04492 2.79102 9.49609 3.7793 9.49609 4.85352C9.49609 7.02344 7.66992 8.80664 5.47852 8.80664ZM7.66992 5.8418C7.54102 5.77734 6.96094 5.49805 6.85352 5.45508C6.74609 5.41211 6.66016 5.39062 6.57422 5.51953C6.50977 5.62695 6.27344 5.90625 6.20898 5.99219C6.12305 6.05664 6.05859 6.07812 5.95117 6.01367C5.24219 5.66992 4.79102 5.39062 4.31836 4.5957C4.18945 4.38086 4.44727 4.40234 4.66211 3.95117C4.70508 3.86523 4.68359 3.80078 4.66211 3.73633C4.64062 3.67188 4.38281 3.0918 4.29688 2.85547C4.18945 2.61914 4.10352 2.64062 4.01758 2.64062C3.95312 2.64062 3.86719 2.64062 3.80273 2.64062C3.7168 2.64062 3.58789 2.66211 3.48047 2.79102C3.37305 2.91992 3.07227 3.19922 3.07227 3.7793C3.07227 4.38086 3.48047 4.93945 3.54492 5.02539C3.60938 5.08984 4.38281 6.29297 5.58594 6.80859C6.33789 7.15234 6.63867 7.17383 7.02539 7.10938C7.24023 7.08789 7.71289 6.83008 7.82031 6.55078C7.92773 6.27148 7.92773 6.03516 7.88477 5.99219C7.86328 5.92773 7.77734 5.90625 7.66992 5.8418Z" fill="#333333"/>
</svg>
